<svg xmlns="http://www.w3.org/2000/svg" viewBox="0 0 529.05 516.09"><defs><style>.cls-1{fill:#fff;}</style></defs><g id="Шар_2" data-name="Шар 2"><g id="Layer_1" data-name="Layer 1"><path class="cls-1" d="M91.41,49.71c27.2-8.74,259.26-81.37,312.5-33.53,0,0,5.37,12.18-4.3,17.55L92.86,57.05A3.77,3.77,0,0,1,88.8,53.3h0A3.76,3.76,0,0,1,91.41,49.71Z"/><path class="cls-1" d="M492,137.21S482,44.55,383.15,66L53.51,121.82A12.65,12.65,0,0,0,43,134.3h0A12.65,12.65,0,0,0,55.91,147Z"/><path class="cls-1" d="M527.09,238.19S552.87,140.08,417.51,158C295.65,174.1,54.77,207.06,8,213.46a9.24,9.24,0,0,0-8,9.16H0a9.24,9.24,0,0,0,9.13,9.23Z"/><path class="cls-1" d="M86.06,455.76c25.16,9.08,232.3,82.19,304.08,53.83A26.39,26.39,0,0,0,407,484.16c-.18-4.2-1.41-8-4.75-9.88L87.67,448.38a3.8,3.8,0,0,0-4.12,3.79h0A3.81,3.81,0,0,0,86.06,455.76Z"/><path class="cls-1" d="M492,380.36S482,473,383.15,451.54L19.29,374.18a8.07,8.07,0,0,1-6.4-7.9h0a8.07,8.07,0,0,1,8.46-8.06Z"/><path class="cls-1" d="M527.09,279.38s25.78,98.12-109.58,80.21C295.65,343.47,54.77,310.52,8,304.11A9.23,9.23,0,0,1,0,295H0a9.24,9.24,0,0,1,9.13-9.24Z"/></g></g></svg>